# xmcd
#
# Track frame offsets: 
#        150
#        18696
#        44707
#        63882
#        65503
#        83576
#        103522
#        122652
#        124281
#        142799
#
# Disc length: 2190 seconds
#
# Revision: 1
# Processed by: cddbd v1.5.2PL0 Copyright (c) Steve Scherf et al.
# Submitted via: ExactAudioCopy v0.99pb4
#
DISCID=87088c0a
DTITLE=A Taste Of Honey - Ladies Of The Eighties
DYEAR=1982
DGENRE=Funk
TTITLE0=Sayonara
TTITLE1=We've Got The Groove
TTITLE2=I'll Try Something New
TTITLE3=We've Got The Groove (Reprise)
TTITLE4=Lies
TTITLE5=Diamond Real
TTITLE6=Never Go Wrong
TTITLE7=We've Got The Groove (Reprise)
TTITLE8=Midnight Snack
TTITLE9=Leavin' Tomorrow
EXTD=
EXTT0=
EXTT1=
EXTT2=
EXTT3=
EXTT4=
EXTT5=
EXTT6=
EXTT7=
EXTT8=
EXTT9=
PLAYORDER=
